<svg width="66" height="37" viewBox="0 0 66 37" fill="none" xmlns="http://www.w3.org/2000/svg">
<rect x="9.52783" y="9.5" width="15.126" height="12" stroke="#5E656E" stroke-width="3"/>
<g filter="url(#filter0_d)">
<rect x="6" y="2" width="11.105" height="25" stroke="#867775" stroke-width="4"/>
</g>
<path d="M33.5666 20L35.7086 10.76H38.7606C39.6006 10.76 40.31 10.9233 40.8886 11.25C41.4766 11.5673 41.92 12.0107 42.2186 12.58C42.5266 13.14 42.6806 13.7933 42.6806 14.54C42.6806 15.604 42.4706 16.5467 42.0506 17.368C41.6306 18.1893 41.0333 18.8333 40.2586 19.3C39.484 19.7667 38.5646 20 37.5006 20H33.5666ZM35.8626 18.46H37.5146C38.028 18.46 38.4806 18.3527 38.8726 18.138C39.274 17.9233 39.61 17.634 39.8806 17.27C40.1513 16.8967 40.3566 16.4813 40.4966 16.024C40.6366 15.5667 40.7066 15.0953 40.7066 14.61C40.7066 13.938 40.5246 13.3873 40.1606 12.958C39.806 12.5193 39.2646 12.3 38.5366 12.3H37.2906L35.8626 18.46ZM47.7224 20.14C46.7144 20.14 45.8277 19.9347 45.0624 19.524C44.2971 19.104 43.7044 18.488 43.2844 17.676L44.5864 16.598C44.8851 17.2793 45.3237 17.7787 45.9024 18.096C46.4904 18.4133 47.1064 18.572 47.7504 18.572C48.2731 18.572 48.6604 18.4553 48.9124 18.222C49.1737 17.9793 49.3044 17.704 49.3044 17.396C49.3044 17.1533 49.2157 16.9573 49.0384 16.808C48.8704 16.6493 48.6137 16.5187 48.2684 16.416L46.8404 15.982C46.1777 15.7767 45.6364 15.4687 45.2164 15.058C44.8057 14.6473 44.6004 14.1293 44.6004 13.504C44.6004 12.916 44.7497 12.4073 45.0484 11.978C45.3564 11.5487 45.7811 11.2127 46.3224 10.97C46.8637 10.7273 47.4891 10.606 48.1984 10.606C49.1411 10.606 49.9344 10.7833 50.5784 11.138C51.2224 11.4927 51.7311 12.006 52.1044 12.678L50.7464 13.728C50.5037 13.1493 50.1444 12.748 49.6684 12.524C49.1924 12.3 48.6931 12.188 48.1704 12.188C47.6477 12.188 47.2557 12.2953 46.9944 12.51C46.7424 12.7247 46.6164 12.9813 46.6164 13.28C46.6164 13.5227 46.7191 13.7373 46.9244 13.924C47.1297 14.1107 47.4004 14.26 47.7364 14.372L49.2344 14.82C49.9251 15.044 50.4431 15.3427 50.7884 15.716C51.1431 16.0893 51.3204 16.57 51.3204 17.158C51.3204 17.774 51.1571 18.306 50.8304 18.754C50.5131 19.202 50.0791 19.5473 49.5284 19.79C48.9871 20.0233 48.3851 20.14 47.7224 20.14Z" fill="black"/>
<defs>
<filter id="filter0_d" x="0" y="0" width="23.105" height="37" filterUnits="userSpaceOnUse" color-interpolation-filters="sRGB">
<feFlood flood-opacity="0" result="BackgroundImageFix"/>
<feColorMatrix in="SourceAlpha" type="matrix" values="0 0 0 0 0 0 0 0 0 0 0 0 0 0 0 0 0 0 127 0"/>
<feOffset dy="4"/>
<feGaussianBlur stdDeviation="2"/>
<feColorMatrix type="matrix" values="0 0 0 0 0 0 0 0 0 0 0 0 0 0 0 0 0 0 0.25 0"/>
<feBlend mode="normal" in2="BackgroundImageFix" result="effect1_dropShadow"/>
<feBlend mode="normal" in="SourceGraphic" in2="effect1_dropShadow" result="shape"/>
</filter>
</defs>
</svg>
